<svg xmlns="http://www.w3.org/2000/svg" viewBox="0 0 320 320">
  <title>_.communication.envelope-alt-filled</title>
  <g id="phone-traditional">
    <path d="M260,89H60a1,1,0,0,0-1,1v23.3335a.9991.9991,0,0,0,.5771.9061l100,46.6665a.9981.9981,0,0,0,.8458,0l100-46.6665a.9992.9992,0,0,0,.5771-.9061V90a1,1,0,0,0-1-1Z" class="fill"/>
    <path d="M260.5372,122.49a1.002,1.002,0,0,0-.96-.0627L160,168.8964,60.4229,122.4273A1,1,0,0,0,59,123.3335V230a1,1,0,0,0,1,1H260a1,1,0,0,0,1-1V123.3335A1.002,1.002,0,0,0,260.5372,122.49Z" class="fill"/>
  </g>
</svg>
