<svg xmlns="http://www.w3.org/2000/svg" viewBox="0 0 320 320">
  <title>_.communication.satellite-dish</title>
  <g id="phone-traditional">
    <path d="M220.7492,70.1818C198.9972,51.0681,170.6677,39.0022,141.0423,39a107.885,107.885,0,0,0-14.5009.9757,1,1,0,0,0-.8547,1.1384l.8267,5.5425a1,1,0,0,0,1.0973.8466,114.6922,114.6922,0,0,1,12.413-.6754c55.7693-.0016,104.5746,40.9563,113.39,97.4955a1.0008,1.0008,0,0,0,1.0347.8448l5.5986-.2612a1,1,0,0,0,.9467-1.1144C257.6978,115.48,242.5,89.2971,220.7492,70.1818ZM140.0237,44.828a116.5964,116.5964,0,0,0-11.6721.596l-.5348-3.5853A106.0071,106.0071,0,0,1,141.0423,41c29.0751-.0021,56.9648,11.8579,78.3867,30.6841,21.149,18.5836,35.9619,43.9376,39.44,71.2756l-3.628.1693C245.8974,86.0682,196.4883,44.83,140.0237,44.828Z" class="fill"/>
    <path d="M140.0061,68.7212a92.8837,92.8837,0,0,0-9.4818.4861,1,1,0,0,0-.8893,1.1255l.7314,5.5488a1,1,0,0,0,1.0916.8643,85.3555,85.3555,0,0,1,92.8481,71.4581,1,1,0,0,0,1.1187.8292l5.5234-.7349a1,1,0,0,0,.8552-1.1514A93.3533,93.3533,0,0,0,140.0061,68.7212Zm.0032,5.5943c-2.5762,0-5.1741.1339-7.7835.3675l-.4717-3.5781q4.1513-.3788,8.252-.3837a91.3419,91.3419,0,0,1,89.6353,75.7335l-3.5406.4711A87.7479,87.7479,0,0,0,140.0093,74.3155Z" class="fill"/>
    <path d="M134.9174,103.0875q2.5883-.2256,5.1609-.225a59.1689,59.1689,0,0,1,58.0079,48.8435,1.0015,1.0015,0,0,0,1.1164.816l5.5215-.7344a1,1,0,0,0,.8533-1.1627,66.7092,66.7092,0,0,0-65.4862-55.3525q-3.0307,0-6.0828.2767a1,1,0,0,0-.9008,1.1266l.7314,5.5464A1.0014,1.0014,0,0,0,134.9174,103.0875Zm44.3428,7.576a64.4848,64.4848,0,0,1,24.1445,39.2819l-3.5389.4707a61.1371,61.1371,0,0,0-59.7875-49.5536c-1.4549,0-2.9158.0654-4.3787.17l-.47-3.5627c1.6245-.1216,3.2465-.1975,4.8615-.1976A63.9447,63.9447,0,0,1,179.26,110.6636Z" class="fill"/>
    <path d="M146.3972,237.226a1.0015,1.0015,0,0,0-.56-.5007c-.0016-.0005-.5462-.196-1.6229-.5875-3.23-1.1744-11.2216-4.1042-23.4423-8.7383a116.38,116.38,0,0,1-18.5829-9.199c-2.3749-1.4389-4.2941-2.705-5.6169-3.6094-.6614-.4523-1.1738-.8141-1.52-1.062-.1729-.124-.3042-.2194-.3916-.2834l-.1285-.0948a1,1,0,0,0-1.5588.5228l-16.25,56.0479a1,1,0,0,0,.96,1.2784h83.68a1,1,0,0,0,.8977-1.44ZM79.0156,269l15.4852-53.4112a123.8525,123.8525,0,0,0,25.5621,13.6807c14.3651,5.4473,22.8862,8.54,24.717,9.2006L159.76,269Z" class="fill"/>
    <path d="M229.8336,197.762,71.1544,93.678a1,1,0,0,0-1.387.2911A67.72,67.72,0,0,0,59,131.229c.008,29.6878,17.4745,61.2249,48.0619,81.2936,18.8764,12.381,39.7236,18.4047,59.2813,18.4053a83.724,83.724,0,0,0,36.6175-8.0386,66.9024,66.9024,0,0,0,27.1629-23.7462A1.0019,1.0019,0,0,0,229.8336,197.762Zm-27.7472,23.3286a81.7291,81.7291,0,0,1-35.7433,7.8375c-19.1475.0006-39.6251-5.9033-58.1843-18.0776C78.0745,191.1224,60.9919,160.1265,61,131.229a65.8132,65.8132,0,0,1,9.9133-35.3174L227.8892,198.8784A64.9738,64.9738,0,0,1,202.0864,221.0905Z" class="fill"/>
  </g>
</svg>
