<svg xmlns="http://www.w3.org/2000/svg" viewBox="0 0 320 320">
  <title>_.communication.phone-traditional-filled</title>
  <g id="phone-traditional">
    <path d="M245.6995,172.5894c-1.6538-3.6374-3.52-6.5291-5.72-8.3a5.4988,5.4988,0,0,0-2.2177-1.015,11.6755,11.6755,0,0,0-2.6235-.26,47.3069,47.3069,0,0,0-6.7516.7121,45.3582,45.3582,0,0,1-6.2941.6891,7.2613,7.2613,0,0,1-2.281-.2917,23.4662,23.4662,0,0,1-6.902-4.3629c-3.6989-3.097-7.6279-7.2312-11.5016-10.9045a68.331,68.331,0,0,0-5.764-4.9883,21.08,21.08,0,0,0-5.6321-3.2023,67.2664,67.2664,0,0,0-13.4609-2.7423,153.8307,153.8307,0,0,0-33.3252,0,67.2621,67.2621,0,0,0-13.4606,2.7423,25.2734,25.2734,0,0,0-7.5392,4.7219c-3.8273,3.2081-7.7685,7.3624-11.5931,10.986a66.4464,66.4464,0,0,1-5.59,4.8414,19.1869,19.1869,0,0,1-5.0775,2.9088,7.2606,7.2606,0,0,1-2.2812.2917,45.3583,45.3583,0,0,1-6.294-.6892,47.305,47.305,0,0,0-6.7514-.7122,11.67,11.67,0,0,0-2.6234.26,5.4966,5.4966,0,0,0-2.2175,1.015c-2.2007,1.7708-4.0667,4.6625-5.7206,8.3a88.3946,88.3946,0,0,0-5.7729,20.2339,134.8434,134.8434,0,0,0-2.0862,22.8574,74.4246,74.4246,0,0,0,.8041,11.5961,24.6345,24.6345,0,0,0,2.605,8.346,24.2346,24.2346,0,0,0,5.5132,5.9716,75.3338,75.3338,0,0,0,12.639,8.1089,70.7924,70.7924,0,0,0,12.2345,5.14c14.4332,4.1229,37.139,6.153,59.8748,6.1568,22.7357-.0038,45.4414-2.034,59.8744-6.1568A79.2107,79.2107,0,0,0,236.48,247.212a66.2759,66.2759,0,0,0,8.1563-5.6176,24.2354,24.2354,0,0,0,5.5133-5.9716,24.6362,24.6362,0,0,0,2.6049-8.3458,74.43,74.43,0,0,0,.804-11.5959,134.6652,134.6652,0,0,0-3.6337-30.2736A74.0558,74.0558,0,0,0,245.6995,172.5894Zm-47.0784,26.42a35.4073,35.4073,0,0,1-11.3374,25.8,40.33,40.33,0,0,1-54.7908,0,35.0246,35.0246,0,0,1,0-51.6,40.33,40.33,0,0,1,54.7908,0A35.4076,35.4076,0,0,1,198.6211,199.0093Z" class="fill"/>
    <path d="M159.8882,179.2427a21.402,21.402,0,0,0-14.7285,5.775,19.0162,19.0162,0,0,0,0,27.9828,21.67,21.67,0,0,0,29.4573,0,19.0157,19.0157,0,0,0,0-27.9828A21.4028,21.4028,0,0,0,159.8882,179.2427Z" class="fill"/>
    <path d="M259.3824,133.3773a57.4989,57.4989,0,0,0,1.3938-12.4456,32.2252,32.2252,0,0,0-.5783-6.5831,21.2808,21.2808,0,0,0-2.9711-6.5225,62.5954,62.5954,0,0,0-8.3609-10.1655,52.1774,52.1774,0,0,0-8.9935-7.4128,39.9986,39.9986,0,0,0-8.6373-3.6038c-10.1321-3.1331-23.8459-5.0258-31.4985-5.9177C189.806,79.5724,174.8533,79.0006,159.888,79s-29.918.5724-39.8483,1.7264c-5.0992.5931-12.9,1.6354-20.53,3.1893-3.8157.7773-7.5886,1.6823-10.9686,2.7283a39.9992,39.9992,0,0,0-8.6375,3.6038A59.5229,59.5229,0,0,0,67.8309,100.931a55.8647,55.8647,0,0,0-5.2813,6.8951,21.2794,21.2794,0,0,0-2.9711,6.5224A32.2091,32.2091,0,0,0,59,120.9318a57.4978,57.4978,0,0,0,1.3938,12.4455c.9464,4.0629,2.3274,7.707,4.3867,10.0039a9.2869,9.2869,0,0,0,3.2034,2.0859,35.1917,35.1917,0,0,0,6.4875,1.9113c2.2256.4673,4.3455.7888,5.799,1.0118a87.5446,87.5446,0,0,0,12.2711,1.0013,24.0774,24.0774,0,0,0,8.11-1.058,24.6532,24.6532,0,0,0,6.1942-3.9473c3.1838-2.5945,6.5082-5.8784,9.7229-8.7274a55.8826,55.8826,0,0,1,4.6821-3.7969,16.6891,16.6891,0,0,1,4.1852-2.277,78.8237,78.8237,0,0,1,15.2759-3.0131,182.0376,182.0376,0,0,1,38.3524,0A78.8188,78.8188,0,0,1,194.34,129.585a20.3567,20.3567,0,0,1,5.7087,3.4156c3.0947,2.4266,6.4139,5.6752,9.66,8.603,3.258,2.9267,6.41,5.5464,9.4155,6.73a24.0767,24.0767,0,0,0,8.11,1.058,87.5481,87.5481,0,0,0,12.2707-1.0013c1.94-.2978,5.0574-.7686,8.043-1.5306a28.8448,28.8448,0,0,0,4.2438-1.3925,9.2847,9.2847,0,0,0,3.2032-2.086C257.0548,141.0844,258.436,137.44,259.3824,133.3773Z" class="fill"/>
  </g>
</svg>
