<svg xmlns="http://www.w3.org/2000/svg" viewBox="0 0 320 320">
  <title>_.communication.phone-horlur</title>
  <g id="phone-traditional">
    <path d="M217.8043,78.4331A44.2272,44.2272,0,0,0,206.9532,51.52c-6.5494-7.267-15.92-12.0542-27.5489-12.5151L179.16,39a6.0682,6.0682,0,0,0-5.6458,3.8245l-29.35,74.4628a6.0128,6.0128,0,0,0,1.6992,6.7772c8.1864,6.99,17.1272,10.2063,25.856,10.203a38.368,38.368,0,0,0,18.6091-4.9949c6.3047,9.0239,9.6416,20.3806,9.6414,32.4867A72.8337,72.8337,0,0,1,191.6151,195.1c-13.1112,20.3672-33.9377,31.9974-53.6509,31.99-1.3962,0-2.7849-.073-4.1672-.19a37.589,37.589,0,0,0-6.6006-21.127c-4.4482-6.3594-11.1631-11.4982-20.1393-14.66a6.0749,6.0749,0,0,0-6.7549,1.9271L50.3115,255.6125a6.0244,6.0244,0,0,0-.3746,6.98C57.9217,275.217,70.249,281.0128,82.9133,281a46.4067,46.4067,0,0,0,20.4723-4.948,95.3376,95.3376,0,0,0,28.4418,4.1964c37.582-.0054,78.6918-20.0795,101.4787-58.0034.4811-.8009.91-1.5934,1.3508-2.36.4451-.7637.9189-1.531,1.3741-2.3466A118.8889,118.8889,0,0,0,251,159.5209C250.995,127.6565,238.52,97.4282,217.8043,78.4331Zm16.48,138.131c-.427.7655-.8941,1.5228-1.3568,2.3159l-.0032.0055c-.4573.7963-.8811,1.5778-1.3329,2.3293-22.3762,37.2738-62.8762,57.0388-99.7642,57.0334a93.2212,93.2212,0,0,1-28.22-4.2159.9935.9935,0,0,0-.7534.06A44.49,44.49,0,0,1,82.9133,279c-12.0665-.0131-23.64-5.4277-31.2868-17.478a4.0243,4.0243,0,0,1,.2475-4.6608l49.9908-62.5719A4.0742,4.0742,0,0,1,106.392,193c8.6331,3.0452,14.9672,7.9242,19.1657,13.92a35.7391,35.7391,0,0,1,6.2649,20.7286l0,.1752a1.0018,1.0018,0,0,0,.8976.9988,51.1454,51.1454,0,0,0,5.2443.2675c20.5168-.0071,41.9131-12.0458,55.3594-32.9484l.0468-.0807a74.8365,74.8365,0,0,0,8.6-34.302c0-12.8-3.6094-24.8595-10.5206-34.38a1,1,0,0,0-1.3117-.2771,36.575,36.575,0,0,1-18.4181,5.1653c-8.2349-.0033-16.6791-3.0072-24.5578-9.7245a4.03,4.03,0,0,1-1.4137-3.0635,3.9745,3.9745,0,0,1,.2771-1.4592l29.35-74.4627A4.07,4.07,0,0,1,179.16,41l.1638.0034c11.123.4517,19.9265,4.9739,26.1443,11.8565a42.3155,42.3155,0,0,1,10.37,26.0922.9982.9982,0,0,0,.3264.6851c20.4106,18.5194,32.84,48.3868,32.8356,79.884A116.8888,116.8888,0,0,1,234.2844,216.5641Z" class="fill"/>
  </g>
</svg>
