<svg xmlns="http://www.w3.org/2000/svg" viewBox="0 0 320 320">
  <title>_.communication.paper-plane-filled</title>
  <g id="phone-traditional">
    <path d="M125.1847,240.4315a1,1,0,0,0,1.6482.2345L148.0317,216.92l71.65,24.0276a1,1,0,0,0,1.2842-.69l40-150c.0018-.0068,0-.0137.0018-.0205a1.0033,1.0033,0,0,0,.0125-.13.9747.9747,0,0,0,.0127-.1456c-.0009-.0231-.0012-.0453-.0037-.0681a.9867.9867,0,0,0-.0325-.1312l-.0011-.0042a.9408.9408,0,0,0-.0328-.1318c-.0093-.0231-.0225-.0435-.0334-.0659-.0071-.0145-.0071-.0305-.0149-.0447a.9391.9391,0,0,0-.0631-.0765c-.0167-.0241-.0287-.0509-.0474-.0736-.0088-.0106-.0116-.0239-.0209-.0342l-.0023-.0018c-.0166-.0183-.0405-.03-.0585-.0468a.9735.9735,0,0,0-.124-.0971.95.95,0,0,0-.0839-.0656l-.0135-.0046c-.0234-.0122-.0488-.0164-.073-.0266a.9712.9712,0,0,0-.1421-.0458.9969.9969,0,0,0-.1157-.03c-.0289-.0038-.0571-.001-.0862-.0023a.9723.9723,0,0,0-.1344.0044.6.6,0,0,0-.2218.046c-.022.0073-.0449.0049-.0667.0138l-220,90a1,1,0,0,0,.0924,1.8837l66.5319,19.8731Zm94.1234-1.7182-69.827-23.4163L257.9531,93.7944ZM252.5338,94.1348,106.7717,198.9011,43.001,179.8527Z" class="fill"/>
  </g>
</svg>
