<svg xmlns="http://www.w3.org/2000/svg" viewBox="0 0 320 320">
  <title>_.communication.message-bubble-filled</title>
  <g id="phone-traditional">
    <path d="M231.3007,100.5964C213.0077,87.2314,187.8118,79.002,160,79c-27.8117.002-53.0078,8.2314-71.3007,21.5964C70.4133,113.9526,59,132.511,59,153.0771c-.0014,17.2682,8.0828,33.1165,21.49,45.6551l-6.0947,42.6649a1,1,0,0,0,1.5446.9734l36.1236-24.0829A130.5414,130.5414,0,0,0,160,227.1538c27.8117-.002,53.0077-8.2314,71.3007-21.5964C249.5867,192.2014,261,173.6429,261,153.0771S249.5867,113.9526,231.3007,100.5964Z" class="fill"/>
  </g>
</svg>
