<svg xmlns="http://www.w3.org/2000/svg" viewBox="0 0 320 320">
  <title>_.communication.phone-traditional</title>
  <g id="phone-traditional">
    <path d="M188.6571,161.7552a42.33,42.33,0,0,0-57.5377,0,37.0241,37.0241,0,0,0,0,54.5081,42.33,42.33,0,0,0,57.5377,0,37.0245,37.0245,0,0,0,0-54.5081Zm-1.3734,53.0542a40.33,40.33,0,0,1-54.7908,0,35.0246,35.0246,0,0,1,0-51.6,40.33,40.33,0,0,1,54.7908,0,35.025,35.025,0,0,1,0,51.6Z" class="fill"/>
    <path d="M245.7,162.5894c-1.6539-3.6374-3.52-6.5291-5.72-8.3a5.4988,5.4988,0,0,0-2.2177-1.015,11.6755,11.6755,0,0,0-2.6235-.26,47.3052,47.3052,0,0,0-6.7516.7121,45.3584,45.3584,0,0,1-6.294.6891,7.2626,7.2626,0,0,1-2.2812-.2917,23.4668,23.4668,0,0,1-6.902-4.3629c-3.699-3.097-7.6279-7.2312-11.5016-10.9045a68.3406,68.3406,0,0,0-5.764-4.9883,21.0816,21.0816,0,0,0-5.6322-3.2023,67.2664,67.2664,0,0,0-13.4609-2.7423,153.83,153.83,0,0,0-33.3251,0,67.2619,67.2619,0,0,0-13.4607,2.7423,25.2734,25.2734,0,0,0-7.5392,4.7219c-3.8273,3.2081-7.7685,7.3624-11.5931,10.986a66.4464,66.4464,0,0,1-5.59,4.8414,19.1869,19.1869,0,0,1-5.0775,2.9088,7.2607,7.2607,0,0,1-2.2811.2917,45.3583,45.3583,0,0,1-6.294-.6892,47.305,47.305,0,0,0-6.7514-.7122,11.671,11.671,0,0,0-2.6234.26,5.4973,5.4973,0,0,0-2.2175,1.015c-2.2007,1.7708-4.0667,4.6625-5.7206,8.3a88.3946,88.3946,0,0,0-5.7729,20.2339,134.8434,134.8434,0,0,0-2.0862,22.8574,74.4246,74.4246,0,0,0,.8041,11.5961,24.6358,24.6358,0,0,0,2.605,8.346,24.2346,24.2346,0,0,0,5.5132,5.9716,75.3338,75.3338,0,0,0,12.639,8.1089,70.7924,70.7924,0,0,0,12.2345,5.14c14.4332,4.1229,37.139,6.153,59.8748,6.1568,22.7357-.0038,45.4414-2.034,59.8744-6.1568A79.2124,79.2124,0,0,0,236.48,237.212a66.2805,66.2805,0,0,0,8.1563-5.6176,24.2362,24.2362,0,0,0,5.5132-5.9716,24.6348,24.6348,0,0,0,2.6049-8.3458,74.4221,74.4221,0,0,0,.8041-11.5959,134.6652,134.6652,0,0,0-3.6337-30.2736A74.0558,74.0558,0,0,0,245.7,162.5894Zm5.08,54.37a22.8063,22.8063,0,0,1-2.354,7.65,22.3928,22.3928,0,0,1-5.06,5.4411,73.42,73.42,0,0,1-12.2923,7.88,68.9492,68.9492,0,0,1-11.8608,4.991c-14.0881,4.0348-36.7212,6.0836-59.3245,6.08-22.6033.0038-45.2365-2.0449-59.3248-6.08a77.39,77.39,0,0,1-16.2469-7.4285A64.32,64.32,0,0,1,76.41,230.05a22.3924,22.3924,0,0,1-5.06-5.4411,22.8086,22.8086,0,0,1-2.3541-7.65,72.4857,72.4857,0,0,1-.7786-11.278,132.7084,132.7084,0,0,1,3.5772-29.8013,72.1115,72.1115,0,0,1,4.1036-12.4647c1.571-3.4807,3.3535-6.1373,5.1484-7.5637a3.5266,3.5266,0,0,1,1.4214-.6287,9.7294,9.7294,0,0,1,2.17-.2079,45.737,45.737,0,0,1,6.45.6892,46.8239,46.8239,0,0,0,6.5958.7122,9.1589,9.1589,0,0,0,2.9283-.3994,25.2764,25.2764,0,0,0,7.5395-4.7222c3.8274-3.2083,7.7686-7.3625,11.5931-10.986a66.4446,66.4446,0,0,1,5.59-4.8412,19.1841,19.1841,0,0,1,5.0772-2.9086,65.4016,65.4016,0,0,1,13.0446-2.6481,151.8357,151.8357,0,0,1,32.8631,0,65.4053,65.4053,0,0,1,13.0448,2.6481,23.463,23.463,0,0,1,6.9023,4.3626c3.699,3.097,7.628,7.2311,11.5016,10.9044a68.3516,68.3516,0,0,0,5.7639,4.9885,21.0843,21.0843,0,0,0,5.632,3.2026,9.16,9.16,0,0,0,2.9283.3993,46.8343,46.8343,0,0,0,6.5958-.7121,45.7458,45.7458,0,0,1,6.45-.6891,9.7309,9.7309,0,0,1,2.17.2079,3.5273,3.5273,0,0,1,1.4215.6286c1.7947,1.4264,3.5771,4.0829,5.1481,7.5637a86.5183,86.5183,0,0,1,5.6251,19.7576,132.8824,132.8824,0,0,1,2.0555,22.5087A72.4758,72.4758,0,0,1,250.78,216.9589Z" class="fill"/>
    <path d="M159.8882,169.2427a21.402,21.402,0,0,0-14.7285,5.775,19.0162,19.0162,0,0,0,0,27.9828,21.67,21.67,0,0,0,29.4573,0,19.0157,19.0157,0,0,0,0-27.9828A21.4028,21.4028,0,0,0,159.8882,169.2427Zm13.3553,32.304a19.67,19.67,0,0,1-26.71,0,17.0167,17.0167,0,0,1,0-25.075,19.67,19.67,0,0,1,26.71,0,17.0162,17.0162,0,0,1,0,25.075Z" class="fill"/>
    <path d="M259.3824,123.3773a57.4953,57.4953,0,0,0,1.3939-12.4456,32.2169,32.2169,0,0,0-.5784-6.5832,21.2794,21.2794,0,0,0-2.9711-6.5224,62.5958,62.5958,0,0,0-8.361-10.1655,52.1774,52.1774,0,0,0-8.9935-7.4128,39.998,39.998,0,0,0-8.6372-3.6038c-10.1321-3.1331-23.846-5.0258-31.4985-5.9177C189.806,69.5724,174.8533,69.0006,159.888,69s-29.918.5724-39.8483,1.7264c-5.0992.5931-12.9,1.6354-20.53,3.1893-3.8157.7773-7.5886,1.6823-10.9686,2.7283a39.9992,39.9992,0,0,0-8.6375,3.6038A59.5229,59.5229,0,0,0,67.8309,90.931,55.8647,55.8647,0,0,0,62.55,97.8261a21.2794,21.2794,0,0,0-2.9711,6.5224A32.21,32.21,0,0,0,59,110.9318a57.4978,57.4978,0,0,0,1.3938,12.4455c.9464,4.0629,2.3274,7.707,4.3865,10.0039a9.2877,9.2877,0,0,0,3.2035,2.0859,35.1917,35.1917,0,0,0,6.4875,1.9113c2.2256.4673,4.3455.7888,5.799,1.0118a87.5462,87.5462,0,0,0,12.2711,1.0013,24.0775,24.0775,0,0,0,8.11-1.058h0a24.6529,24.6529,0,0,0,6.1942-3.9473c3.1838-2.5945,6.5082-5.8784,9.7229-8.7274a55.8826,55.8826,0,0,1,4.6821-3.7969,16.6891,16.6891,0,0,1,4.1852-2.277,78.8237,78.8237,0,0,1,15.2759-3.0131,182.0376,182.0376,0,0,1,38.3524,0A78.8188,78.8188,0,0,1,194.34,119.585a20.3569,20.3569,0,0,1,5.7088,3.4156c3.0947,2.4266,6.4138,5.6752,9.66,8.603,3.2579,2.9267,6.41,5.5464,9.4155,6.73a24.0767,24.0767,0,0,0,8.11,1.058,87.5447,87.5447,0,0,0,12.2706-1.0013c1.94-.2978,5.0574-.7686,8.043-1.5306a28.85,28.85,0,0,0,4.2438-1.3925,9.2844,9.2844,0,0,0,3.2032-2.086C257.0549,131.0844,258.436,127.44,259.3824,123.3773Zm-8.3849,10.2545a33.3459,33.3459,0,0,1-6.1038,1.7893c-2.158.4532-4.238.77-5.6913.9922a85.6566,85.6566,0,0,1-11.9676.9782,22.441,22.441,0,0,1-7.3839-.9215,22.8562,22.8562,0,0,1-5.6575-3.6346c-3.0757-2.5037-6.3917-5.7751-9.6591-8.6731a57.8,57.8,0,0,0-4.8549-3.934,18.5886,18.5886,0,0,0-4.71-2.5419,80.692,80.692,0,0,0-15.68-3.1019,184.041,184.041,0,0,0-38.802,0,80.6937,80.6937,0,0,0-15.68,3.1019,22.1726,22.1726,0,0,0-6.3142,3.7407c-3.222,2.53-6.5575,5.801-9.7647,8.691-3.1956,2.8912-6.2958,5.3873-8.8026,6.352l.3631.9318-.3632-.9318a22.443,22.443,0,0,1-7.384.9215,85.6489,85.6489,0,0,1-11.9681-.9782c-1.9359-.2964-4.993-.7614-7.8508-1.4916a26.9336,26.9336,0,0,1-3.944-1.29,7.4466,7.4466,0,0,1-2.515-1.5923c-1.6548-1.809-3.0347-5.2258-3.9209-9.1115A55.5344,55.5344,0,0,1,61,110.9318a30.3236,30.3236,0,0,1,.5328-6.1583,19.4275,19.4275,0,0,1,2.705-5.8751,60.6674,60.6674,0,0,1,8.0869-9.8237A50.3537,50.3537,0,0,1,80.94,81.9582a38.1577,38.1577,0,0,1,8.1921-3.4036c9.8778-3.06,23.5474-4.961,31.1384-5.8416,9.787-1.139,24.7084-1.7137,39.6172-1.7131s29.83.574,39.6176,1.7131c5.0632.5886,12.82,1.6261,20.3618,3.1625,3.77.7678,7.4865,1.6606,10.7764,2.6791a38.16,38.16,0,0,1,8.1919,3.4036A57.7475,57.7475,0,0,1,250.4482,92.257a53.9032,53.9032,0,0,1,5.09,6.6415,19.4279,19.4279,0,0,1,2.705,5.875,30.3323,30.3323,0,0,1,.5328,6.1582,55.5389,55.5389,0,0,1-1.3427,11.9963c-.8862,3.8858-2.2662,7.3026-3.9213,9.1116A7.4452,7.4452,0,0,1,250.9976,133.6318Z" class="fill"/>
  </g>
</svg>
