<svg xmlns="http://www.w3.org/2000/svg" viewBox="0 0 320 320">
  <title>_.communication.phone-horlur-filled</title>
  <g id="phone-traditional">
    <path d="M217.8043,78.4331A44.2265,44.2265,0,0,0,206.9532,51.52c-6.5495-7.267-15.92-12.0542-27.5489-12.5151L179.16,39a6.0682,6.0682,0,0,0-5.6458,3.8245l-29.35,74.4628a6.0127,6.0127,0,0,0,1.6993,6.7772c8.1863,6.99,17.1271,10.2063,25.8559,10.203a38.367,38.367,0,0,0,18.6091-4.9949c6.3046,9.0239,9.6415,20.3806,9.6413,32.4867A72.8351,72.8351,0,0,1,191.6151,195.1c-13.1112,20.3672-33.9377,31.9974-53.6509,31.99-1.3962,0-2.7849-.073-4.1672-.19a37.589,37.589,0,0,0-6.6006-21.127c-4.4482-6.3594-11.163-11.4982-20.1393-14.66a6.0749,6.0749,0,0,0-6.7549,1.9271L50.3115,255.6125a6.0244,6.0244,0,0,0-.3746,6.98C57.9217,275.217,70.249,281.0128,82.9132,281a46.4071,46.4071,0,0,0,20.4724-4.948,95.337,95.337,0,0,0,28.4418,4.1964c37.582-.0054,78.6918-20.0795,101.4786-58.0034.4811-.8009.91-1.5934,1.3508-2.36.4451-.7637.9189-1.531,1.3741-2.3466A118.89,118.89,0,0,0,251,159.5209C250.9949,127.6565,238.52,97.4282,217.8043,78.4331Z" class="fill"/>
  </g>
</svg>
