<svg xmlns="http://www.w3.org/2000/svg" viewBox="0 0 320 320">
  <title>_.communication.paper-plane</title>
  <g id="phone-traditional">
    <path d="M260.99,89.8932a.987.987,0,0,0-.0325-.1312l-.001-.0042a.9579.9579,0,0,0-.0328-.1318c-.0093-.0231-.0225-.0435-.0335-.0659-.0071-.0145-.007-.0305-.0149-.0447a.9513.9513,0,0,0-.0632-.0765c-.0166-.0241-.0286-.0509-.0473-.0735-.0088-.0106-.0116-.0239-.0209-.0342l-.0023-.0018c-.0165-.0183-.04-.03-.0583-.0467a.965.965,0,0,0-.1244-.0974.9473.9473,0,0,0-.0836-.0655l-.0134-.0045c-.0234-.0122-.0488-.0164-.073-.0267a.9729.9729,0,0,0-.1422-.0459,1,1,0,0,0-.1159-.03c-.0287-.0038-.0567-.001-.0856-.0023a.7793.7793,0,0,0-.3562.05c-.0222.0073-.0452.0049-.067.0139l-220,90a1,1,0,0,0,.0924,1.8837l66.5319,19.8732,18.9391,39.6a1,1,0,0,0,1.6481.2345L148.0318,216.92l71.65,24.0276a1,1,0,0,0,1.2842-.69l40-150c.0018-.0068,0-.0137.0019-.0205a20.9879,20.9879,0,0,0,.0251-.2758C260.9923,89.9383,260.992,89.9161,260.99,89.8932Zm-8.4556,4.2415L106.7719,198.9012,43.001,179.8527ZM126.3411,238.2136l-18.1213-37.89L253.1906,96.1258,146.9786,215.0967l0,.0009Zm92.9671.5-69.827-23.4163L257.9534,93.7941Z" class="fill"/>
  </g>
</svg>
