<svg xmlns="http://www.w3.org/2000/svg" viewBox="0 0 320 320">
  <title>_.communication.satellite-dish-filled</title>
  <g id="phone-traditional">
    <path d="M220.7491,70.1818C198.9971,51.0681,170.6676,39.0022,141.0422,39a107.8823,107.8823,0,0,0-14.5009.9757,1,1,0,0,0-.8547,1.1384l.8267,5.5425a1,1,0,0,0,1.0973.8466,114.6911,114.6911,0,0,1,12.413-.6754c55.7692-.0016,104.5746,40.9562,113.39,97.4955a1.0008,1.0008,0,0,0,1.0347.8448l5.5986-.2612a1,1,0,0,0,.9468-1.1144C257.6978,115.48,242.5,89.2971,220.7491,70.1818Z" class="fill"/>
    <path d="M140.0061,68.7212a92.8822,92.8822,0,0,0-9.4818.4861,1,1,0,0,0-.8893,1.1255l.7314,5.5488a1,1,0,0,0,1.0916.8643,85.3555,85.3555,0,0,1,92.8481,71.4581,1,1,0,0,0,1.1187.8292l5.5234-.7349a1,1,0,0,0,.8552-1.1514A93.3535,93.3535,0,0,0,140.0061,68.7212Z" class="fill"/>
    <path d="M134.9174,103.0875q2.5882-.2256,5.1609-.225a59.1689,59.1689,0,0,1,58.0079,48.8435,1.0015,1.0015,0,0,0,1.1165.816l5.5215-.7344a1,1,0,0,0,.8533-1.1627,66.7091,66.7091,0,0,0-65.4863-55.3525q-3.0308,0-6.0826.2767a1,1,0,0,0-.9008,1.1266l.7314,5.5464A1.0013,1.0013,0,0,0,134.9174,103.0875Z" class="fill"/>
    <path d="M146.3972,237.226a1.002,1.002,0,0,0-.56-.5007c-.0016-.0005-.5461-.196-1.6228-.5875-3.23-1.1744-11.2217-4.1042-23.4424-8.7383a116.3816,116.3816,0,0,1-18.5829-9.199c-2.3749-1.4389-4.2941-2.705-5.6169-3.6094-.6615-.4523-1.1738-.8141-1.52-1.062-.1729-.124-.3042-.2194-.3916-.2834l-.1285-.0948a1,1,0,0,0-1.5587.5228l-16.25,56.0479a1,1,0,0,0,.96,1.2784h83.68a1,1,0,0,0,.8977-1.44Z" class="fill"/>
    <path d="M229.8336,197.762,71.1544,93.678a1,1,0,0,0-1.387.2911A67.72,67.72,0,0,0,59,131.229c.008,29.6878,17.4745,61.2249,48.0618,81.2936,18.8763,12.381,39.7235,18.4047,59.2813,18.4053a83.7239,83.7239,0,0,0,36.6174-8.0386,66.9041,66.9041,0,0,0,27.1631-23.7462A1.0019,1.0019,0,0,0,229.8336,197.762Z" class="fill"/>
  </g>
</svg>
