<svg xmlns="http://www.w3.org/2000/svg" viewBox="0 0 320 320">
  <title>_.communication.message-bubble</title>
  <g id="phone-traditional">
    <path d="M231.3007,100.5964C213.0077,87.2314,187.8118,79.002,160,79c-27.8117.002-53.0078,8.2314-71.3007,21.5964C70.4133,113.9526,59,132.511,59,153.0771c-.0014,17.2682,8.0828,33.1165,21.49,45.6551l-6.0947,42.6649a1,1,0,0,0,1.5446.9734l36.1236-24.0829A130.5414,130.5414,0,0,0,160,227.1538c27.8117-.002,53.0077-8.2314,71.3007-21.5964C249.5867,192.2014,261,173.6429,261,153.0771S249.5867,113.9526,231.3007,100.5964Zm-1.18,103.3463c-17.9,13.0837-42.7039,21.2131-70.1207,21.2112a128.4181,128.4181,0,0,1-47.6876-8.9139.9963.9963,0,0,0-.9271.096l-34.6943,23.13,5.8507-40.9573a1.0027,1.0027,0,0,0-.3114-.876C68.9086,185.3215,61.0014,169.8648,61,153.0771c0-19.7934,10.9725-37.7734,28.8793-50.866C107.7792,89.1274,132.5831,80.998,160,81c27.4168-.002,52.2208,8.1274,70.1207,21.2112C248.0275,115.3038,259,133.2837,259,153.0771S248.0275,190.85,230.1207,203.9426Z" class="fill"/>
  </g>
</svg>
