<svg xmlns="http://www.w3.org/2000/svg" viewBox="0 0 320 320">
  <title>_.filesystem.book</title>
  <g id="save">
    <path d="M260,40a2,2,0,0,0-2-2H87.5654a85.6018,85.6018,0,0,0-10.2732.3845,18.3736,18.3736,0,0,0-8.4375,2.9142h0A14.5634,14.5634,0,0,0,64.8,45.6581a30.1045,30.1045,0,0,0-3.6474,10.9341A109.9361,109.9361,0,0,0,60,74.2856c0,34.2856,0,128.5712,0,171.4287a91.4653,91.4653,0,0,0,.8067,14.6069,34.1455,34.1455,0,0,0,2.1185,7.7024,21.1391,21.1391,0,0,0,7.6071,9.5609c3.6469,2.488,8.4487,4.0377,14.6274,4.3488h-.0039l.2036.0107.0139.0006c.0393.0017.0834.0013.1228.0032l.0015,0c.0461.0022.0962.0017.1418.0037.6.0267,1.2146.0482,1.8593.0482h161.98a2.0014,2.0014,0,0,0,1.9409-1.5176l8.5215-34.2856c.0038-.0153.0026-.0309.006-.0461a1.9767,1.9767,0,0,0,.0406-.313c.0022-.0355.01-.07.0106-.106l.0017-.0172ZM77.7909,42.3533A82.4517,82.4517,0,0,1,87.5654,42H256V243.7142H87.5654A30.9661,30.9661,0,0,0,72,247.4163V44.0773A15.639,15.639,0,0,1,77.7909,42.3533ZM65.9324,53.3352A21.3114,21.3114,0,0,1,68,48.1236v202.26a18.8783,18.8783,0,0,0-2.1292,2.3865c-.11.146-.2241.29-.329.4379-.177.2512-.34.5072-.5027.7645-.1294.2045-.2565.4094-.3763.6173q-.201.35-.3842.7045l-.0227.0416c-.2477-3.2507-.2574-6.5448-.256-9.6215V74.2856C63.9966,64.7913,64.6709,58.0237,65.9324,53.3352Z" class="fill"/>
  </g>
</svg>
