<?xml version="1.0" encoding="utf-8"?>
<!-- Generator: Adobe Illustrator 21.1.0, SVG Export Plug-In . SVG Version: 6.00 Build 0)  -->
<svg
	version="1.1"
	xmlns="http://www.w3.org/2000/svg"
	xmlns:xlink="http://www.w3.org/1999/xlink"
	x="0"
	y="0"
  viewBox="0 0 480 480"
	style="enable-background:new 0 0 480 480; height: 480px"
	xml:space="preserve">

<style type="text/css">
	path {
		fill: #b9375a
	}
</style>

<path d="M0,0v480h480V0H0z M460,328h-25.307c-11.596,0-22.695,3.585-32.1,10.369l-14.897,10.744l-8.59-31.764 l-10.662,39.425l-8.155-37.287l-28.529,8.025c-3.549,0.998-7.216,1.504-10.898,1.504h-67.058l-0.27,0.283l-0.286-0.283H253v-0.244 l-16.089-15.898c-12.071,10.488-28.1,16.821-46.108,16.821c-39.187,0-68.963-29.59-69.254-68.684H28.453l0.145,1.835 c2.774,35.134,29.327,60.634,63.138,60.634c16.666,0,32.858-6.876,44.235-14.33l4.398,4.398 c-9.788,6.627-26.889,15.435-48.632,15.435c-18.911,0-36.41-7.352-49.272-20.701c-12.876-13.365-19.968-31.552-19.968-51.209 c0-19.55,7.039-37.645,19.821-50.952c12.799-13.325,30.245-20.663,49.122-20.663c21.351,0,39.836,8.899,52.229,23.423 c12.198-11.098,28.616-17.708,47.136-17.708c39.38,0,69.261,29.881,69.261,69.261c0,19.195-7.124,36.016-18.8,48.285l14.472,14.298 h65.125c3.134,0,6.254-0.431,9.274-1.279l34.655-9.75l4.271,19.524l10.045-37.146l12.117,44.807l7.86-5.67 C409.517,325.978,421.83,322,434.693,322H460V328z" />
<path d="M153.987,255.507v-1.7c0.005-13.36-3.653-25.772-10.469-35.995c-8.835,10.048-14.438,23.086-15.47,37.696 H153.987z"/>
<path d="M135.511,208.209c-11.507-11.122-27.157-17.248-44.065-17.248c-0.011,0-0.018,0-0.027,0 c-16.831,0-32.459,6.451-44.008,18.167c-11.394,11.549-18.077,27.39-18.817,44.606l-0.077,1.774h93.187 c1.08-16.769,7.654-31.575,18.043-42.745C138.421,211.175,137.008,209.655,135.511,208.209z"/>
<path d="M190.803,196.912c-17.112,0-32.233,6.327-43.363,16.837c8.016,11.388,12.645,25.551,12.645,41.245 c0,1.734-0.133,3.933-0.357,5.88l-31.846,0.137c0.29,35.537,27.297,62.945,62.922,62.945c16.425,0,30.87-5.739,41.754-15.435 l-36.609-36.807l4.155-4.353l36.807,37.005c10.488-11.28,16.821-26.715,16.821-43.931 C253.731,224.616,226.62,196.912,190.803,196.912z"/>
</svg>
